<svg xmlns="http://www.w3.org/2000/svg" xmlns:xlink="http://www.w3.org/1999/xlink" zoomAndPan="magnify" preserveAspectRatio="xMidYMid meet" version="1.0" viewBox="0 34.79 238.37 75.12"><defs><g/><clipPath id="51c0a0aee4"><path d="M 0 34.785156 L 75.121094 34.785156 L 75.121094 109.90625 L 0 109.90625 Z M 0 34.785156 " clip-rule="nonzero"/></clipPath><clipPath id="2e17f9d8f6"><path d="M 18.699219 34.785156 L 56.421875 34.785156 C 61.382812 34.785156 66.136719 36.753906 69.644531 40.261719 C 73.152344 43.769531 75.121094 48.523438 75.121094 53.484375 L 75.121094 91.207031 C 75.121094 96.167969 73.152344 100.921875 69.644531 104.429688 C 66.136719 107.9375 61.382812 109.90625 56.421875 109.90625 L 18.699219 109.90625 C 13.738281 109.90625 8.984375 107.9375 5.476562 104.429688 C 1.96875 100.921875 0 96.167969 0 91.207031 L 0 53.484375 C 0 48.523438 1.96875 43.769531 5.476562 40.261719 C 8.984375 36.753906 13.738281 34.785156 18.699219 34.785156 Z M 18.699219 34.785156 " clip-rule="nonzero"/></clipPath><clipPath id="bce8a381b3"><path d="M 29.246094 49.34375 L 64.175781 49.34375 L 64.175781 94.523438 L 29.246094 94.523438 Z M 29.246094 49.34375 " clip-rule="nonzero"/></clipPath><clipPath id="e61ad0762e"><path d="M 63.066406 73.980469 L 32.375 94.058594 C 31.753906 94.464844 30.957031 94.5 30.304688 94.144531 C 29.652344 93.792969 29.246094 93.109375 29.246094 92.367188 L 29.246094 51.496094 C 29.246094 50.753906 29.652344 50.070312 30.304688 49.71875 C 30.957031 49.363281 31.753906 49.398438 32.375 49.804688 L 63.066406 69.882812 C 63.757812 70.335938 64.175781 71.105469 64.175781 71.929688 C 64.175781 72.757812 63.757812 73.527344 63.066406 73.980469 Z M 63.066406 73.980469 " clip-rule="nonzero"/></clipPath><clipPath id="9d4e03c628"><path d="M 15.761719 49.089844 L 21.519531 49.089844 L 21.519531 94.789062 L 15.761719 94.789062 Z M 15.761719 49.089844 " clip-rule="nonzero"/></clipPath><clipPath id="41b27786a3"><path d="M 18.640625 49.089844 C 20.230469 49.089844 21.519531 50.378906 21.519531 51.96875 L 21.519531 91.902344 C 21.519531 93.492188 20.230469 94.78125 18.640625 94.78125 C 17.050781 94.78125 15.761719 93.492188 15.761719 91.902344 L 15.761719 51.96875 C 15.761719 50.378906 17.050781 49.089844 18.640625 49.089844 Z M 18.640625 49.089844 " clip-rule="nonzero"/></clipPath></defs><g clip-path="url(#51c0a0aee4)"><g clip-path="url(#2e17f9d8f6)"><path fill="#00b85a" d="M 0 34.785156 L 75.121094 34.785156 L 75.121094 109.90625 L 0 109.90625 Z M 0 34.785156 " fill-opacity="1" fill-rule="nonzero"/></g></g><g clip-path="url(#bce8a381b3)"><g clip-path="url(#e61ad0762e)"><path fill="#000000" d="M 66.199219 47.757812 L 66.199219 96.109375 L 29.246094 96.109375 L 29.246094 47.757812 Z M 66.199219 47.757812 " fill-opacity="1" fill-rule="nonzero"/></g></g><g clip-path="url(#9d4e03c628)"><g clip-path="url(#41b27786a3)"><path fill="#000000" d="M 15.761719 49.089844 L 21.519531 49.089844 L 21.519531 94.789062 L 15.761719 94.789062 Z M 15.761719 49.089844 " fill-opacity="1" fill-rule="nonzero"/></g></g><g fill="#000000" fill-opacity="1"><g transform="translate(91.639126, 94.000063)"><g><path d="M 32.296875 -44.484375 L 32.296875 -39.765625 L 20.171875 -39.765625 L 20.171875 0 L 14.359375 0 L 14.359375 -39.765625 L 2.171875 -39.765625 L 2.171875 -44.484375 Z M 32.296875 -44.484375 "/></g></g></g><g fill="#000000" fill-opacity="1"><g transform="translate(123.294749, 94.000063)"><g><path d="M 35.9375 -34.984375 L 35.9375 0 L 30.125 0 L 30.125 -5.171875 C 29.019531 -3.378906 27.476562 -1.984375 25.5 -0.984375 C 23.519531 0.015625 21.335938 0.515625 18.953125 0.515625 C 16.234375 0.515625 13.785156 -0.046875 11.609375 -1.171875 C 9.441406 -2.304688 7.726562 -4 6.46875 -6.25 C 5.21875 -8.507812 4.59375 -11.253906 4.59375 -14.484375 L 4.59375 -34.984375 L 10.34375 -34.984375 L 10.34375 -15.25 C 10.34375 -11.800781 11.210938 -9.148438 12.953125 -7.296875 C 14.703125 -5.453125 17.085938 -4.53125 20.109375 -4.53125 C 23.210938 -4.53125 25.65625 -5.488281 27.4375 -7.40625 C 29.226562 -9.320312 30.125 -12.109375 30.125 -15.765625 L 30.125 -34.984375 Z M 35.9375 -34.984375 "/></g></g></g><g fill="#000000" fill-opacity="1"><g transform="translate(161.268765, 94.000063)"><g><path d="M 10.71875 -28.46875 C 11.914062 -30.550781 13.660156 -32.25 15.953125 -33.5625 C 18.253906 -34.882812 20.875 -35.546875 23.8125 -35.546875 C 26.957031 -35.546875 29.785156 -34.800781 32.296875 -33.3125 C 34.804688 -31.820312 36.785156 -29.726562 38.234375 -27.03125 C 39.679688 -24.332031 40.40625 -21.191406 40.40625 -17.609375 C 40.40625 -14.078125 39.679688 -10.925781 38.234375 -8.15625 C 36.785156 -5.394531 34.796875 -3.25 32.265625 -1.71875 C 29.734375 -0.1875 26.914062 0.578125 23.8125 0.578125 C 20.789062 0.578125 18.140625 -0.0820312 15.859375 -1.40625 C 13.585938 -2.726562 11.875 -4.410156 10.71875 -6.453125 L 10.71875 0 L 4.921875 0 L 4.921875 -47.234375 L 10.71875 -47.234375 Z M 34.46875 -17.609375 C 34.46875 -20.253906 33.9375 -22.554688 32.875 -24.515625 C 31.8125 -26.472656 30.375 -27.960938 28.5625 -28.984375 C 26.75 -30.003906 24.757812 -30.515625 22.59375 -30.515625 C 20.46875 -30.515625 18.5 -29.988281 16.6875 -28.9375 C 14.882812 -27.894531 13.4375 -26.382812 12.34375 -24.40625 C 11.257812 -22.4375 10.71875 -20.148438 10.71875 -17.546875 C 10.71875 -14.910156 11.257812 -12.601562 12.34375 -10.625 C 13.4375 -8.644531 14.882812 -7.132812 16.6875 -6.09375 C 18.5 -5.050781 20.46875 -4.53125 22.59375 -4.53125 C 24.757812 -4.53125 26.75 -5.050781 28.5625 -6.09375 C 30.375 -7.132812 31.8125 -8.644531 32.875 -10.625 C 33.9375 -12.601562 34.46875 -14.929688 34.46875 -17.609375 Z M 34.46875 -17.609375 "/></g></g></g><g fill="#000000" fill-opacity="1"><g transform="translate(201.540373, 94.000063)"><g><path d="M 36.828125 -18.828125 C 36.828125 -17.722656 36.765625 -16.550781 36.640625 -15.3125 L 8.6875 -15.3125 C 8.894531 -11.875 10.070312 -9.1875 12.21875 -7.25 C 14.375 -5.3125 16.984375 -4.34375 20.046875 -4.34375 C 22.554688 -4.34375 24.648438 -4.925781 26.328125 -6.09375 C 28.003906 -7.257812 29.1875 -8.820312 29.875 -10.78125 L 36.125 -10.78125 C 35.1875 -7.425781 33.3125 -4.691406 30.5 -2.578125 C 27.695312 -0.472656 24.210938 0.578125 20.046875 0.578125 C 16.722656 0.578125 13.753906 -0.164062 11.140625 -1.65625 C 8.523438 -3.144531 6.472656 -5.257812 4.984375 -8 C 3.492188 -10.75 2.75 -13.929688 2.75 -17.546875 C 2.75 -21.171875 3.46875 -24.34375 4.90625 -27.0625 C 6.351562 -29.78125 8.382812 -31.875 11 -33.34375 C 13.625 -34.8125 16.640625 -35.546875 20.046875 -35.546875 C 23.359375 -35.546875 26.289062 -34.820312 28.84375 -33.375 C 31.40625 -31.9375 33.375 -29.945312 34.75 -27.40625 C 36.132812 -24.875 36.828125 -22.015625 36.828125 -18.828125 Z M 30.828125 -20.046875 C 30.828125 -22.253906 30.335938 -24.15625 29.359375 -25.75 C 28.378906 -27.34375 27.046875 -28.554688 25.359375 -29.390625 C 23.679688 -30.222656 21.820312 -30.640625 19.78125 -30.640625 C 16.84375 -30.640625 14.34375 -29.703125 12.28125 -27.828125 C 10.21875 -25.953125 9.039062 -23.359375 8.75 -20.046875 Z M 30.828125 -20.046875 "/></g></g></g><g fill="#000000" fill-opacity="1"><g transform="translate(80.620712, 93.357078)"><g><path d="M 6.671875 -34.3125 C 5.742188 -34.3125 4.957031 -34.632812 4.3125 -35.28125 C 3.664062 -35.925781 3.34375 -36.710938 3.34375 -37.640625 C 3.34375 -38.578125 3.664062 -39.367188 4.3125 -40.015625 C 4.957031 -40.660156 5.742188 -40.984375 6.671875 -40.984375 C 7.578125 -40.984375 8.34375 -40.660156 8.96875 -40.015625 C 9.59375 -39.367188 9.90625 -38.578125 9.90625 -37.640625 C 9.90625 -36.710938 9.59375 -35.925781 8.96875 -35.28125 C 8.34375 -34.632812 7.578125 -34.3125 6.671875 -34.3125 Z M 9.046875 -29.515625 L 9.046875 0 L 4.140625 0 L 4.140625 -29.515625 Z M 9.046875 -29.515625 "/></g></g></g></svg>