<svg xmlns="http://www.w3.org/2000/svg" xmlns:xlink="http://www.w3.org/1999/xlink" zoomAndPan="magnify" preserveAspectRatio="xMidYMid meet" version="1.0" viewBox="0 0 75.08 75.08"><defs><clipPath id="5a5ce35b94"><path d="M 0 0 L 75.078125 0 L 75.078125 75.078125 L 0 75.078125 Z M 0 0 " clip-rule="nonzero"/></clipPath><clipPath id="545bffdd93"><path d="M 18.6875 0 L 56.390625 0 C 61.347656 0 66.101562 1.96875 69.605469 5.472656 C 73.109375 8.976562 75.078125 13.730469 75.078125 18.6875 L 75.078125 56.390625 C 75.078125 61.347656 73.109375 66.101562 69.605469 69.605469 C 66.101562 73.109375 61.347656 75.078125 56.390625 75.078125 L 18.6875 75.078125 C 13.730469 75.078125 8.976562 73.109375 5.472656 69.605469 C 1.96875 66.101562 0 61.347656 0 56.390625 L 0 18.6875 C 0 13.730469 1.96875 8.976562 5.472656 5.472656 C 8.976562 1.96875 13.730469 0 18.6875 0 Z M 18.6875 0 " clip-rule="nonzero"/></clipPath><clipPath id="bb77f54911"><path d="M 29.226562 14.550781 L 64.140625 14.550781 L 64.140625 59.703125 L 29.226562 59.703125 Z M 29.226562 14.550781 " clip-rule="nonzero"/></clipPath><clipPath id="73751995a6"><path d="M 63.03125 39.171875 L 32.355469 59.242188 C 31.734375 59.648438 30.941406 59.679688 30.289062 59.328125 C 29.636719 58.972656 29.226562 58.292969 29.226562 57.550781 L 29.226562 16.699219 C 29.226562 15.957031 29.636719 15.277344 30.289062 14.921875 C 30.941406 14.570312 31.734375 14.601562 32.355469 15.007812 L 63.03125 35.078125 C 63.722656 35.53125 64.136719 36.300781 64.136719 37.125 C 64.136719 37.949219 63.722656 38.71875 63.03125 39.171875 Z M 63.03125 39.171875 " clip-rule="nonzero"/></clipPath><clipPath id="593ab83393"><path d="M 15.753906 14.296875 L 21.507812 14.296875 L 21.507812 59.96875 L 15.753906 59.96875 Z M 15.753906 14.296875 " clip-rule="nonzero"/></clipPath><clipPath id="3c507e72fb"><path d="M 18.628906 14.296875 C 20.21875 14.296875 21.507812 15.582031 21.507812 17.171875 L 21.507812 57.085938 C 21.507812 58.675781 20.21875 59.960938 18.628906 59.960938 C 17.039062 59.960938 15.753906 58.675781 15.753906 57.085938 L 15.753906 17.171875 C 15.753906 15.582031 17.039062 14.296875 18.628906 14.296875 Z M 18.628906 14.296875 " clip-rule="nonzero"/></clipPath></defs><g clip-path="url(#5a5ce35b94)"><g clip-path="url(#545bffdd93)"><path fill="#00b85a" d="M 0 0 L 75.078125 0 L 75.078125 75.078125 L 0 75.078125 Z M 0 0 " fill-opacity="1" fill-rule="nonzero"/></g></g><g clip-path="url(#bb77f54911)"><g clip-path="url(#73751995a6)"><path fill="#000000" d="M 66.160156 12.964844 L 66.160156 61.289062 L 29.226562 61.289062 L 29.226562 12.964844 Z M 66.160156 12.964844 " fill-opacity="1" fill-rule="nonzero"/></g></g><g clip-path="url(#593ab83393)"><g clip-path="url(#3c507e72fb)"><path fill="#000000" d="M 15.753906 14.296875 L 21.507812 14.296875 L 21.507812 59.96875 L 15.753906 59.96875 Z M 15.753906 14.296875 " fill-opacity="1" fill-rule="nonzero"/></g></g></svg>