<svg xmlns="http://www.w3.org/2000/svg" xmlns:xlink="http://www.w3.org/1999/xlink" zoomAndPan="magnify" preserveAspectRatio="xMidYMid meet" version="1.0" viewBox="2.09 0 74.84 97.74"><defs><g/><clipPath id="5139ae90dd"><path d="M 27.8125 14.503906 L 62.617188 14.503906 L 62.617188 59.515625 L 27.8125 59.515625 Z M 27.8125 14.503906 " clip-rule="nonzero"/></clipPath><clipPath id="70d1aabff5"><path d="M 61.511719 39.046875 L 30.929688 59.054688 C 30.3125 59.460938 29.519531 59.492188 28.871094 59.140625 C 28.21875 58.789062 27.8125 58.109375 27.8125 57.367188 L 27.8125 16.648438 C 27.8125 15.910156 28.21875 15.226562 28.871094 14.875 C 29.519531 14.523438 30.3125 14.558594 30.929688 14.960938 L 61.511719 34.96875 C 62.199219 35.417969 62.613281 36.1875 62.613281 37.007812 C 62.613281 37.832031 62.199219 38.597656 61.511719 39.046875 Z M 61.511719 39.046875 " clip-rule="nonzero"/></clipPath><clipPath id="27d875825c"><path d="M 14.378906 14.25 L 20.117188 14.25 L 20.117188 59.78125 L 14.378906 59.78125 Z M 14.378906 14.25 " clip-rule="nonzero"/></clipPath><clipPath id="058e2bae02"><path d="M 17.25 14.25 C 18.832031 14.25 20.117188 15.535156 20.117188 17.117188 L 20.117188 56.90625 C 20.117188 58.488281 18.832031 59.773438 17.25 59.773438 C 15.664062 59.773438 14.378906 58.488281 14.378906 56.90625 L 14.378906 17.117188 C 14.378906 15.535156 15.664062 14.25 17.25 14.25 Z M 17.25 14.25 " clip-rule="nonzero"/></clipPath><clipPath id="734454c545"><path d="M 2.085938 0 L 76.929688 0 L 76.929688 74.84375 L 2.085938 74.84375 Z M 2.085938 0 " clip-rule="nonzero"/></clipPath><clipPath id="746a768ba7"><path d="M 20.714844 0 L 58.300781 0 C 63.238281 0 67.980469 1.960938 71.472656 5.457031 C 74.964844 8.949219 76.929688 13.6875 76.929688 18.628906 L 76.929688 56.214844 C 76.929688 61.15625 74.964844 65.894531 71.472656 69.386719 C 67.980469 72.878906 63.238281 74.84375 58.300781 74.84375 L 20.714844 74.84375 C 15.773438 74.84375 11.035156 72.878906 7.542969 69.386719 C 4.046875 65.894531 2.085938 61.15625 2.085938 56.214844 L 2.085938 18.628906 C 2.085938 13.6875 4.046875 8.949219 7.542969 5.457031 C 11.035156 1.960938 15.773438 0 20.714844 0 Z M 20.714844 0 " clip-rule="nonzero"/></clipPath><clipPath id="c47686d2a3"><path d="M 31.222656 14.503906 L 66.023438 14.503906 L 66.023438 59.515625 L 31.222656 59.515625 Z M 31.222656 14.503906 " clip-rule="nonzero"/></clipPath><clipPath id="a62057ad5c"><path d="M 64.921875 39.046875 L 34.339844 59.054688 C 33.722656 59.460938 32.929688 59.492188 32.277344 59.140625 C 31.628906 58.789062 31.222656 58.109375 31.222656 57.367188 L 31.222656 16.648438 C 31.222656 15.910156 31.628906 15.226562 32.277344 14.875 C 32.929688 14.523438 33.722656 14.558594 34.339844 14.960938 L 64.921875 34.96875 C 65.609375 35.417969 66.023438 36.1875 66.023438 37.007812 C 66.023438 37.832031 65.609375 38.597656 64.921875 39.046875 Z M 64.921875 39.046875 " clip-rule="nonzero"/></clipPath><clipPath id="e5166098b0"><path d="M 17.789062 14.25 L 23.527344 14.25 L 23.527344 59.78125 L 17.789062 59.78125 Z M 17.789062 14.25 " clip-rule="nonzero"/></clipPath><clipPath id="3ae92fd28b"><path d="M 20.65625 14.25 C 22.242188 14.25 23.527344 15.535156 23.527344 17.117188 L 23.527344 56.90625 C 23.527344 58.488281 22.242188 59.773438 20.65625 59.773438 C 19.074219 59.773438 17.789062 58.488281 17.789062 56.90625 L 17.789062 17.117188 C 17.789062 15.535156 19.074219 14.25 20.65625 14.25 Z M 20.65625 14.25 " clip-rule="nonzero"/></clipPath></defs><g clip-path="url(#5139ae90dd)"><g clip-path="url(#70d1aabff5)"><path fill="#000000" d="M 64.628906 12.921875 L 64.628906 61.097656 L 27.8125 61.097656 L 27.8125 12.921875 Z M 64.628906 12.921875 " fill-opacity="1" fill-rule="nonzero"/></g></g><g clip-path="url(#27d875825c)"><g clip-path="url(#058e2bae02)"><path fill="#000000" d="M 14.378906 14.25 L 20.117188 14.25 L 20.117188 59.78125 L 14.378906 59.78125 Z M 14.378906 14.25 " fill-opacity="1" fill-rule="nonzero"/></g></g><g clip-path="url(#734454c545)"><g clip-path="url(#746a768ba7)"><path fill="#00b85a" d="M 2.085938 0 L 76.929688 0 L 76.929688 74.84375 L 2.085938 74.84375 Z M 2.085938 0 " fill-opacity="1" fill-rule="nonzero"/></g></g><g clip-path="url(#c47686d2a3)"><g clip-path="url(#a62057ad5c)"><path fill="#000000" d="M 68.039062 12.921875 L 68.039062 61.097656 L 31.222656 61.097656 L 31.222656 12.921875 Z M 68.039062 12.921875 " fill-opacity="1" fill-rule="nonzero"/></g></g><g clip-path="url(#e5166098b0)"><g clip-path="url(#3ae92fd28b)"><path fill="#000000" d="M 17.789062 14.25 L 23.527344 14.25 L 23.527344 59.78125 L 17.789062 59.78125 Z M 17.789062 14.25 " fill-opacity="1" fill-rule="nonzero"/></g></g><g fill="#000000" fill-opacity="1"><g transform="translate(14.628264, 97.535275)"><g><path d="M 11.40625 -15.71875 L 11.40625 -14.046875 L 7.125 -14.046875 L 7.125 0 L 5.078125 0 L 5.078125 -14.046875 L 0.765625 -14.046875 L 0.765625 -15.71875 Z M 11.40625 -15.71875 "/></g></g></g><g fill="#000000" fill-opacity="1"><g transform="translate(25.807345, 97.535275)"><g><path d="M 12.6875 -12.359375 L 12.6875 0 L 10.640625 0 L 10.640625 -1.828125 C 10.253906 -1.191406 9.707031 -0.695312 9 -0.34375 C 8.300781 0.0078125 7.535156 0.1875 6.703125 0.1875 C 5.734375 0.1875 4.863281 -0.0078125 4.09375 -0.40625 C 3.332031 -0.8125 2.726562 -1.410156 2.28125 -2.203125 C 1.84375 -3.003906 1.625 -3.976562 1.625 -5.125 L 1.625 -12.359375 L 3.65625 -12.359375 L 3.65625 -5.390625 C 3.65625 -4.171875 3.960938 -3.234375 4.578125 -2.578125 C 5.191406 -1.921875 6.035156 -1.59375 7.109375 -1.59375 C 8.203125 -1.59375 9.0625 -1.929688 9.6875 -2.609375 C 10.320312 -3.285156 10.640625 -4.269531 10.640625 -5.5625 L 10.640625 -12.359375 Z M 12.6875 -12.359375 "/></g></g></g><g fill="#000000" fill-opacity="1"><g transform="translate(39.217745, 97.535275)"><g><path d="M 3.78125 -10.0625 C 4.207031 -10.789062 4.828125 -11.390625 5.640625 -11.859375 C 6.453125 -12.328125 7.375 -12.5625 8.40625 -12.5625 C 9.519531 -12.5625 10.519531 -12.296875 11.40625 -11.765625 C 12.289062 -11.242188 12.988281 -10.503906 13.5 -9.546875 C 14.007812 -8.585938 14.265625 -7.476562 14.265625 -6.21875 C 14.265625 -4.96875 14.007812 -3.851562 13.5 -2.875 C 12.988281 -1.90625 12.285156 -1.148438 11.390625 -0.609375 C 10.503906 -0.0664062 9.507812 0.203125 8.40625 0.203125 C 7.34375 0.203125 6.40625 -0.0234375 5.59375 -0.484375 C 4.789062 -0.953125 4.1875 -1.550781 3.78125 -2.28125 L 3.78125 0 L 1.734375 0 L 1.734375 -16.6875 L 3.78125 -16.6875 Z M 12.171875 -6.21875 C 12.171875 -7.15625 11.984375 -7.96875 11.609375 -8.65625 C 11.234375 -9.34375 10.722656 -9.867188 10.078125 -10.234375 C 9.441406 -10.597656 8.742188 -10.78125 7.984375 -10.78125 C 7.234375 -10.78125 6.535156 -10.59375 5.890625 -10.21875 C 5.253906 -9.851562 4.742188 -9.320312 4.359375 -8.625 C 3.972656 -7.925781 3.78125 -7.117188 3.78125 -6.203125 C 3.78125 -5.265625 3.972656 -4.445312 4.359375 -3.75 C 4.742188 -3.050781 5.253906 -2.515625 5.890625 -2.140625 C 6.535156 -1.773438 7.234375 -1.59375 7.984375 -1.59375 C 8.742188 -1.59375 9.441406 -1.773438 10.078125 -2.140625 C 10.722656 -2.515625 11.234375 -3.050781 11.609375 -3.75 C 11.984375 -4.445312 12.171875 -5.269531 12.171875 -6.21875 Z M 12.171875 -6.21875 "/></g></g></g><g fill="#000000" fill-opacity="1"><g transform="translate(53.439533, 97.535275)"><g><path d="M 13.015625 -6.65625 C 13.015625 -6.257812 12.988281 -5.84375 12.9375 -5.40625 L 3.0625 -5.40625 C 3.132812 -4.1875 3.550781 -3.234375 4.3125 -2.546875 C 5.070312 -1.867188 5.992188 -1.53125 7.078125 -1.53125 C 7.960938 -1.53125 8.703125 -1.734375 9.296875 -2.140625 C 9.890625 -2.554688 10.304688 -3.113281 10.546875 -3.8125 L 12.765625 -3.8125 C 12.429688 -2.625 11.769531 -1.65625 10.78125 -0.90625 C 9.789062 -0.164062 8.554688 0.203125 7.078125 0.203125 C 5.910156 0.203125 4.863281 -0.0546875 3.9375 -0.578125 C 3.007812 -1.109375 2.28125 -1.859375 1.75 -2.828125 C 1.226562 -3.796875 0.96875 -4.921875 0.96875 -6.203125 C 0.96875 -7.472656 1.222656 -8.585938 1.734375 -9.546875 C 2.242188 -10.515625 2.960938 -11.257812 3.890625 -11.78125 C 4.816406 -12.300781 5.878906 -12.5625 7.078125 -12.5625 C 8.253906 -12.5625 9.289062 -12.304688 10.1875 -11.796875 C 11.09375 -11.285156 11.789062 -10.582031 12.28125 -9.6875 C 12.769531 -8.789062 13.015625 -7.78125 13.015625 -6.65625 Z M 10.890625 -7.078125 C 10.890625 -7.859375 10.71875 -8.53125 10.375 -9.09375 C 10.03125 -9.65625 9.5625 -10.082031 8.96875 -10.375 C 8.375 -10.675781 7.710938 -10.828125 6.984375 -10.828125 C 5.953125 -10.828125 5.070312 -10.492188 4.34375 -9.828125 C 3.613281 -9.171875 3.195312 -8.253906 3.09375 -7.078125 Z M 10.890625 -7.078125 "/></g></g></g><g fill="#000000" fill-opacity="1"><g transform="translate(66.399769, 97.535275)"><g/></g></g><g fill="#000000" fill-opacity="1"><g transform="translate(9.808528, 97.308206)"><g><path d="M 2.359375 -12.109375 C 2.023438 -12.109375 1.742188 -12.222656 1.515625 -12.453125 C 1.285156 -12.679688 1.171875 -12.960938 1.171875 -13.296875 C 1.171875 -13.617188 1.285156 -13.894531 1.515625 -14.125 C 1.742188 -14.351562 2.023438 -14.46875 2.359375 -14.46875 C 2.671875 -14.46875 2.9375 -14.351562 3.15625 -14.125 C 3.382812 -13.894531 3.5 -13.617188 3.5 -13.296875 C 3.5 -12.960938 3.382812 -12.679688 3.15625 -12.453125 C 2.9375 -12.222656 2.671875 -12.109375 2.359375 -12.109375 Z M 3.1875 -10.421875 L 3.1875 0 L 1.46875 0 L 1.46875 -10.421875 Z M 3.1875 -10.421875 "/></g></g></g></svg>